<svg xmlns="http://www.w3.org/2000/svg" viewBox="30 70 940 420">
  <!-- Background -->
  <!-- <rect x="0" y="0" width="1000" height="500" fill="#f8f9fa"/> -->
  
  <!-- Title -->
  <!-- <text x="500" y="40" text-anchor="middle" font-family="Arial" font-size="24" font-weight="bold" fill="#333333">Transfer Learning with Latent Flow Matching</text> -->
  
  <!-- Phase 1: Pretraining on Source Airport -->
  <rect x="50" y="80" width="900" height="180" fill="#ffffff" stroke="#dddddd" stroke-width="2" rx="10" ry="10"/>
  <text x="500" y="105" text-anchor="middle" font-family="Arial" font-size="18" font-weight="bold" fill="#666666">Phase 1: Pretraining on Source Airport</text>
  
  <!-- Source Data -->
  <rect x="80" y="130" width="120" height="100" fill="#e1f5fe" stroke="#0288d1" stroke-width="2" rx="8" ry="8"/>
  <text x="140" y="155" text-anchor="middle" font-family="Arial" font-size="14" font-weight="bold" fill="#0288d1">Source</text>
  <text x="140" y="175" text-anchor="middle" font-family="Arial" font-size="14" font-weight="bold" fill="#0288d1">Airport</text>
  <text x="140" y="195" text-anchor="middle" font-family="Arial" font-size="12" fill="#0288d1">Data</text>
  <text x="140" y="215" text-anchor="middle" font-family="Arial" font-size="10" fill="#0288d1">(100% data)</text>
  
  <!-- Source VAE -->
  <rect x="260" y="130" width="120" height="100" fill="#e8f5e9" stroke="#388e3c" stroke-width="2" rx="8" ry="8"/>
  <text x="320" y="160" text-anchor="middle" font-family="Arial" font-size="14" font-weight="bold" fill="#388e3c">VAE</text>
  <text x="320" y="180" text-anchor="middle" font-family="Arial" font-size="12" fill="#388e3c">Encoder</text>
  <text x="320" y="200" text-anchor="middle" font-family="Arial" font-size="12" fill="#388e3c">Decoder</text>
  
  <!-- Flow Matching Network (Training) -->
  <rect x="440" y="130" width="300" height="100" fill="#fff3e0" stroke="#f57c00" stroke-width="2" rx="8" ry="8"/>
  <text x="590" y="155" text-anchor="middle" font-family="Arial" font-size="14" font-weight="bold" fill="#f57c00">Flow Matching Network</text>
  <text x="590" y="175" text-anchor="middle" font-family="Arial" font-size="12" fill="#f57c00">Learns to transform noise z₁~N(0,I)</text>
  <text x="590" y="195" text-anchor="middle" font-family="Arial" font-size="12" fill="#f57c00">to latent representation z₀</text>
  <text x="590" y="215" text-anchor="middle" font-family="Arial" font-size="12" fill="#f57c00">via velocity field v(z,t)</text>
  
  <!-- Pretrained Model -->
  <rect x="800" y="130" width="120" height="100" fill="#fce4ec" stroke="#c2185b" stroke-width="2" rx="8" ry="8"/>
  <text x="860" y="160" text-anchor="middle" font-family="Arial" font-size="14" font-weight="bold" fill="#c2185b">Pretrained</text>
  <text x="860" y="180" text-anchor="middle" font-family="Arial" font-size="12" fill="#c2185b">Flow Matching</text>
  <text x="860" y="200" text-anchor="middle" font-family="Arial" font-size="12" fill="#c2185b">Model</text>
  
  <!-- Phase 2: Transfer Learning -->
  <rect x="50" y="290" width="900" height="180" fill="#ffffff" stroke="#dddddd" stroke-width="2" rx="10" ry="10"/>
  <text x="500" y="315" text-anchor="middle" font-family="Arial" font-size="18" font-weight="bold" fill="#666666">Phase 2: Transfer Learning to Target Airport</text>
  
  <!-- Target Data -->
  <rect x="80" y="340" width="120" height="100" fill="#f3e5f5" stroke="#7b1fa2" stroke-width="2" rx="8" ry="8"/>
  <text x="140" y="365" text-anchor="middle" font-family="Arial" font-size="14" font-weight="bold" fill="#7b1fa2">Target</text>
  <text x="140" y="385" text-anchor="middle" font-family="Arial" font-size="14" font-weight="bold" fill="#7b1fa2">Airport</text>
  <text x="140" y="405" text-anchor="middle" font-family="Arial" font-size="12" fill="#7b1fa2">Data</text>
  <text x="140" y="425" text-anchor="middle" font-family="Arial" font-size="10" fill="#7b1fa2">(5%, 20%, 100%)</text>
  
  <!-- Target VAE -->
  <rect x="260" y="340" width="120" height="100" fill="#e8f5e9" stroke="#388e3c" stroke-width="2" rx="8" ry="8"/>
  <text x="320" y="370" text-anchor="middle" font-family="Arial" font-size="14" font-weight="bold" fill="#388e3c">VAE</text>
  <text x="320" y="390" text-anchor="middle" font-family="Arial" font-size="12" fill="#388e3c">Encoder</text>
  <text x="320" y="410" text-anchor="middle" font-family="Arial" font-size="12" fill="#388e3c">Decoder</text>
  
  <!-- Transfer Learning -->
  <rect x="440" y="340" width="300" height="100" fill="#fff3e0" stroke="#f57c00" stroke-width="2" rx="8" ry="8"/>
  <text x="590" y="365" text-anchor="middle" font-family="Arial" font-size="14" font-weight="bold" fill="#f57c00">Fine-tuned Flow Matching Network</text>
  <text x="590" y="385" text-anchor="middle" font-family="Arial" font-size="12" fill="#f57c00">Initialized with weights from</text>
  <text x="590" y="405" text-anchor="middle" font-family="Arial" font-size="12" fill="#f57c00">pretrained source model</text>
  <text x="590" y="425" text-anchor="middle" font-family="Arial" font-size="12" fill="#f57c00">Fine-tuned on limited target data</text>
  
  <!-- Transferred Model -->
  <rect x="800" y="340" width="120" height="100" fill="#e8eaf6" stroke="#3949ab" stroke-width="2" rx="8" ry="8"/>
  <text x="860" y="370" text-anchor="middle" font-family="Arial" font-size="14" font-weight="bold" fill="#3949ab">Fine-tuned</text>
  <text x="860" y="390" text-anchor="middle" font-family="Arial" font-size="12" fill="#3949ab">Model</text>
  <text x="860" y="410" text-anchor="middle" font-family="Arial" font-size="12" fill="#3949ab">for Target</text>
  
  <!-- Connections -->
  <!-- Phase 1 Connections -->
  <line x1="200" y1="180" x2="260" y2="180" stroke="#666666" stroke-width="2"/>
  <polygon points="255,175 265,180 255,185" fill="#666666"/>
  
  <line x1="380" y1="180" x2="440" y2="180" stroke="#666666" stroke-width="2"/>
  <polygon points="435,175 445,180 435,185" fill="#666666"/>
  
  <line x1="740" y1="180" x2="800" y2="180" stroke="#666666" stroke-width="2"/>
  <polygon points="795,175 805,180 795,185" fill="#666666"/>
  
  <!-- Phase 2 Connections -->
  <line x1="200" y1="390" x2="260" y2="390" stroke="#666666" stroke-width="2"/>
  <polygon points="255,385 265,390 255,395" fill="#666666"/>
  
  <line x1="380" y1="390" x2="440" y2="390" stroke="#666666" stroke-width="2"/>
  <polygon points="435,385 445,390 435,395" fill="#666666"/>
  
  <line x1="740" y1="390" x2="800" y2="390" stroke="#666666" stroke-width="2"/>
  <polygon points="795,385 805,390 795,395" fill="#666666"/>
  
  <!-- Transfer connections -->
  <!-- Flow Matching Transfer -->
  <path d="M860,230 C860,260 590,280 590,340" stroke="#c2185b" stroke-width="3" stroke-dasharray="8,4" fill="none"/>
  <polygon points="585,335 590,345 595,335" fill="#c2185b"/>
  
  <!-- VAE Transfer -->
  <path d="M320,230 C320,260 320,280 320,340" stroke="#388e3c" stroke-width="3" stroke-dasharray="8,4" fill="none"/>
  <polygon points="315,335 320,345 325,335" fill="#388e3c"/>
  
  <!-- Transfer Label -->
  <text x="420" y="275" font-family="Arial" font-size="14" font-weight="bold" fill="#333333" transform="rotate(-10,420,275)">Weight Transfer</text>
  
  <!-- Evaluation Metrics -->
  <!-- <rect x="300" y="460" width="400" height="30" fill="#f1f1f1" stroke="#999999" stroke-width="1" rx="5" ry="5"/> -->
  <!-- <text x="500" y="480" text-anchor="middle" font-family="Arial" font-size="14" fill="#333333">Evaluation: E-distance, MMD, DTW metrics</text> -->
</svg>